<svg width="400" xmlns="http://www.w3.org/2000/svg" height="400" id="screenshot-f588e471-54f4-8018-8007-0a0f1162b66b" viewBox="0 0 400 400" xmlns:xlink="http://www.w3.org/1999/xlink" fill="none" version="1.1"><g id="shape-f588e471-54f4-8018-8007-0a0f1162b66b" rx="0" ry="0"><g id="shape-6c622e79-8bd2-808d-8006-fc050111c6e9"><g class="fills" id="fills-6c622e79-8bd2-808d-8006-fc050111c6e9"><rect rx="40" ry="40" x="0" y="0" transform="matrix(1.000000, 0.000000, 0.000000, 1.000000, 0.000000, 0.000000)" width="400" height="400" style="fill: rgb(185, 47, 26); fill-opacity: 1;"/></g></g><g id="shape-6c622e79-8bd2-808d-8006-fc0607f8a367"><defs><clipPath id="frame-clip-6c622e79-8bd2-808d-8006-fc0607f8a367-render-3" class="frame-clip frame-clip-def"><rect rx="0" ry="0" x="0" y="0" width="400" height="400" transform="matrix(1.000000, 0.000000, 0.000000, 1.000000, 0.000000, 0.000000)"/></clipPath></defs><g class="frame-container-wrapper"><g class="frame-container-blur"><g class="frame-container-shadows"><g clip-path="url(#frame-clip-6c622e79-8bd2-808d-8006-fc0607f8a367-render-3)" fill="none"><g class="fills" id="fills-6c622e79-8bd2-808d-8006-fc0607f8a367"><rect width="400" height="400" class="frame-background" x="0" transform="matrix(1.000000, 0.000000, 0.000000, 1.000000, 0.000000, 0.000000)" style="fill: rgb(255, 255, 255); fill-opacity: 0;" ry="0" rx="0" y="0"/></g><g class="frame-children"><g id="shape-c83baff5-4959-80eb-8007-0a0c16c0c764"><defs><clipPath id="frame-clip-c83baff5-4959-80eb-8007-0a0c16c0c764-render-4" class="frame-clip frame-clip-def"><rect rx="0" ry="0" x="30" y="30" width="159" height="158.99999999999994" transform="matrix(1.000000, 0.000000, 0.000000, 1.000000, 0.000000, 0.000000)"/></clipPath></defs><g class="frame-container-wrapper"><g class="frame-container-blur"><g class="frame-container-shadows"><g clip-path="url(#frame-clip-c83baff5-4959-80eb-8007-0a0c16c0c764-render-4)" fill="none"><g class="fills" id="fills-c83baff5-4959-80eb-8007-0a0c16c0c764"><rect rx="0" ry="0" x="30" y="30" width="159" height="158.99999999999994" transform="matrix(1.000000, 0.000000, 0.000000, 1.000000, 0.000000, 0.000000)" class="frame-background"/></g><g class="frame-children"><g id="shape-c83baff5-4959-80eb-8007-0a0bcccda7c8"><g class="fills" id="fills-c83baff5-4959-80eb-8007-0a0bcccda7c8"><ellipse cx="109.5" cy="109.5" rx="79.5" ry="79.5" transform="matrix(1.000000, 0.000000, 0.000000, 1.000000, 0.000000, 0.000000)" style="fill: rgb(255, 171, 88); fill-opacity: 1;"/></g></g></g></g></g></g></g></g><g id="shape-6c622e79-8bd2-808d-8006-fc069b195b94"><g class="fills" id="fills-6c622e79-8bd2-808d-8006-fc069b195b94"><rect rx="0" ry="0" x="211" y="30" transform="matrix(1.000000, 0.000000, 0.000000, 1.000000, 0.000000, 0.000000)" width="159" height="159.00000000000006" style="fill: rgb(240, 144, 89); fill-opacity: 0.6;"/></g></g><g id="shape-6c622e79-8bd2-808d-8006-fc0698a95f52"><g class="fills" id="fills-6c622e79-8bd2-808d-8006-fc0698a95f52"><rect rx="0" ry="0" x="30" y="211" transform="matrix(1.000000, 0.000000, 0.000000, 1.000000, 0.000000, 0.000000)" width="159" height="159" style="fill: rgb(240, 144, 89); fill-opacity: 0.6;"/></g></g><g id="shape-6c622e79-8bd2-808d-8006-fc0697d9e6f0"><g class="fills" id="fills-6c622e79-8bd2-808d-8006-fc0697d9e6f0"><rect rx="0" ry="0" x="211" y="211" transform="matrix(1.000000, 0.000000, 0.000000, 1.000000, 0.000000, 0.000000)" width="159" height="81" style="fill: rgb(240, 144, 89); fill-opacity: 0.6;"/></g></g></g></g></g></g></g></g><g id="shape-c83baff5-4959-80eb-8007-0a0c5e5e4359" rx="0" ry="0"><g id="shape-c83baff5-4959-80eb-8007-0a0c3d081f4b"><g class="fills" id="fills-c83baff5-4959-80eb-8007-0a0c3d081f4b"><rect rx="0" ry="0" x="83.09582425360873" y="82.34582425360878" transform="matrix(0.707107, -0.707107, 0.707107, 0.707107, -22.484912, 126.408270)" width="116.5" height="16.000000000000057" style="fill: rgb(255, 255, 255); fill-opacity: 1;"/></g></g><g id="shape-c83baff5-4959-80eb-8007-0a0c4b82bae5"><g class="fills" id="fills-c83baff5-4959-80eb-8007-0a0c4b82bae5"><rect rx="0" ry="0" x="54.591378028648535" y="100.82237725975551" transform="matrix(0.707107, 0.707107, -0.707107, 0.707107, 102.603962, -30.063121)" width="65.99999999999994" height="16.000000000000057" style="fill: rgb(255, 255, 255); fill-opacity: 1;"/></g></g></g></g></svg>